<?xml version="1.0" encoding="utf-8"?>
<!-- Generator: Adobe Illustrator 16.0.0, SVG Export Plug-In . SVG Version: 6.00 Build 0)  -->
<!DOCTYPE svg PUBLIC "-//W3C//DTD SVG 1.0//EN" "http://www.w3.org/TR/2001/REC-SVG-20010904/DTD/svg10.dtd">
<svg version="1.0" id="Layer_1" xmlns="http://www.w3.org/2000/svg" xmlns:xlink="http://www.w3.org/1999/xlink" x="0px" y="0px"
	 width="100px" height="100px" viewBox="0 0 100 100" enable-background="new 0 0 100 100" xml:space="preserve">
<rect x="37.307" y="0.641" transform="matrix(-0.7071 -0.7071 0.7071 -0.7071 40.6383 98.1159)" fill="#4DD0E1" width="6.667" height="80"/>
<path fill="#FFB74D" d="M49.902,26.667h-9.091L27.073,12.93c-3.905-3.906-10.24-3.906-14.143,0c-3.906,3.906-3.906,10.234,0,14.137
	l13.737,13.74v9.094l6.664-6.663v-5.192L17.645,22.354c-1.298-1.292-1.297-3.412,0.006-4.717c1.294-1.296,3.408-1.296,4.711,0.006
	l15.684,15.69h5.191L49.902,26.667z"/>
<polygon fill="#FFB74D" points="33.333,62.09 33.333,76.881 38.88,56.549 45.354,50.071 61.038,65.756 65.755,61.041 50.07,45.355 
	56.546,38.88 76.885,33.333 62.093,33.333 68.76,26.667 80,26.667 90,36.667 59.209,45.065 70.469,56.328 85.293,52.289 90,56.992 
	68.789,68.789 57.002,90 52.285,85.286 56.328,70.469 45.065,59.205 36.67,90 26.667,79.993 26.667,68.756 "/>
</svg>
