<?xml version="1.0" encoding="utf-8"?>
<!-- Generator: Adobe Illustrator 16.0.0, SVG Export Plug-In . SVG Version: 6.00 Build 0)  -->
<!DOCTYPE svg PUBLIC "-//W3C//DTD SVG 1.1//EN" "http://www.w3.org/Graphics/SVG/1.1/DTD/svg11.dtd">
<svg version="1.1" id="Layer_1" xmlns="http://www.w3.org/2000/svg" xmlns:xlink="http://www.w3.org/1999/xlink" x="0px" y="0px"
	 width="128px" height="128px" viewBox="0 0 128 128" enable-background="new 0 0 128 128" xml:space="preserve">
<g>
	<g>
		<g>
			<g>
				<rect x="57.99" y="107.949" fill="#282D33" width="4.002" height="10.062"/>
			</g>
			<g>
				<path fill="#282D33" d="M59.022,109.353c-8.262,0-16.641-1.86-24.505-5.791c-1.654-0.826-3.266-1.735-4.79-2.705l2.147-3.377
					c1.409,0.895,2.899,1.736,4.432,2.501c24.896,12.44,55.386,2.527,67.964-22.1c6.06-11.877,7.106-25.384,2.946-38.032
					c-4.195-12.762-13.176-23.123-25.283-29.175c-1.449-0.729-2.977-1.401-4.675-2.055l1.437-3.735
					c1.823,0.701,3.47,1.425,5.033,2.213c13.064,6.53,22.759,17.719,27.291,31.502c4.496,13.67,3.365,28.267-3.184,41.103
					C98.236,98.494,78.976,109.352,59.022,109.353z"/>
			</g>
			<g>
				<path fill="#282D33" d="M99.107,128H20.8l0.083-2.082c0.195-4.881,4.151-10.319,9.518-10.319h59.101
					c5.368,0,9.327,5.438,9.521,10.319L99.107,128z M25.32,123.997h69.267c-0.854-2.302-2.843-4.396-5.085-4.396H30.401
					C28.161,119.602,26.173,121.695,25.32,123.997z"/>
			</g>
			<g>
				
					<rect x="30.635" y="89.313" transform="matrix(0.8892 0.4575 -0.4575 0.8892 48.6304 -4.0302)" fill="#282D33" width="4.002" height="18.168"/>
			</g>
			<g>
				
					<rect x="76.979" y="-0.004" transform="matrix(0.8892 0.4574 -0.4574 0.8892 12.5433 -35.2088)" fill="#282D33" width="4.003" height="16.605"/>
			</g>
		</g>
		<g>
			<g>
				<g>
					<path fill="#282D33" d="M59.872,100.374c-6.135,0-12.363-1.23-18.329-3.829c-11.202-4.887-19.795-13.823-24.199-25.166
						c-4.359-11.228-4.069-23.456,0.817-34.434l3.657,1.628c-4.449,9.995-4.713,21.132-0.743,31.357
						c4.014,10.34,11.852,18.489,22.068,22.945c21.025,9.16,45.665-0.303,54.924-21.098c4.45-9.998,4.714-21.138,0.742-31.367
						c-4.016-10.339-11.851-18.484-22.065-22.938c-5.525-2.409-11.376-3.585-17.369-3.493l-0.061-4.003
						c6.563-0.107,12.977,1.188,19.029,3.827c11.199,4.883,19.792,13.818,24.196,25.158c4.361,11.231,4.072,23.465-0.815,34.444
						C94.203,90.299,77.428,100.373,59.872,100.374z"/>
				</g>
			</g>
			<g>
				<g>
					<path fill="#282D33" d="M52.441,84.257l-0.026-14.039l2.191-8.804l-4.136-2.007l-0.694-6.536l7.714-6.392l5.935,3.375
						l2.109-2.076l-7.432-3.928l0.966-3.833l6.476-5.624l8.746-2.892l5.059,4.675l9.602,1.065c0.913-0.067,5.063-0.374,9.635-0.684
						l0.27,3.994c-5.163,0.349-9.789,0.694-9.791,0.695l-0.186,0.014L77.6,40.009l-4.293-3.966l-5.744,1.899l-4.567,3.967
						l9.243,4.887l-8.161,8.033l-6.161-3.504l-3.933,3.258l0.233,2.192l5.059,2.455l-2.856,11.475l0.008,4.311L69.5,62.729
						l3.615-3.513l7.376-3.899l0.947,9.735l5.235,5.223l15.479-11.62l2.404,3.201L86.303,75.558l-8.709-8.688l-0.509-5.225
						l-1.591,0.842l-3.229,3.136L52.441,84.257z"/>
				</g>
				<g>
					<path fill="#282D33" d="M27.659,77.478l-2.291-8.479l3.807-8.368l-0.451-7.307l3.995-0.246l0.473,7.665
						c0.021,0.469-0.068,0.901-0.256,1.286l-3.328,7.316l0.204,0.752l11.217-10.225l-3.366-7.438l3.647-1.649l4.563,10.087
						L27.659,77.478z"/>
				</g>
				<g>
					<polygon fill="#282D33" points="57.842,33.46 56.802,29.595 63.759,27.724 68.621,21.161 71.838,23.544 66.146,31.227 					"/>
				</g>
			</g>
		</g>
	</g>
	<g>
		<g>
			<path fill="#282D33" d="M36.29,47.933L35,46.844c-1.927-1.626-18.822-16.184-18.822-26.713c0-10.983,9.022-19.919,20.112-19.919
				c11.089,0,20.112,8.936,20.112,19.919c0,10.529-16.895,25.087-18.821,26.713L36.29,47.933z M36.29,4.215
				c-8.883,0-16.11,7.14-16.11,15.916c0,6.776,10.643,17.659,16.109,22.531c5.467-4.875,16.109-15.763,16.109-22.531
				C52.399,11.354,45.172,4.215,36.29,4.215z"/>
		</g>
		<g>
			<path fill="#282D33" d="M36.289,28.159c-4.463,0-8.094-3.602-8.094-8.028s3.631-8.028,8.094-8.028s8.094,3.602,8.094,8.028
				S40.752,28.159,36.289,28.159z M36.289,16.105c-2.256,0-4.091,1.806-4.091,4.025s1.835,4.026,4.091,4.026
				s4.092-1.807,4.092-4.026S38.545,16.105,36.289,16.105z"/>
		</g>
	</g>
</g>
</svg>
