<svg xmlns="http://www.w3.org/2000/svg" viewBox="0 0 48 48"><defs><style>.cls-1{fill:#201602;}</style></defs><title>Asset 52ldpi</title><g id="Layer_2" data-name="Layer 2"><g id="layer_1-2" data-name="layer 1"><path class="cls-1" d="M48,48H46V27a1,1,0,0,0-1-1H44a1,1,0,0,0-1,1v1a1,1,0,0,1-2,0V27a1,1,0,0,0-1-1H39a1,1,0,0,0-1,1v1a1,1,0,0,1-2,0V27a1,1,0,0,0-1-1H34a1,1,0,0,0-1,1v1a1,1,0,0,1-2,0V15a1,1,0,0,0-1-1H29a1,1,0,0,0-1,1V36a1,1,0,0,1-.46.84,1,1,0,0,1-.95.07L18.41,33.2a1,1,0,0,0-.95.07,1,1,0,0,0-.46.84v.35a2,2,0,0,0,.84,1.62l11.73,8.38A3.44,3.44,0,0,1,31,47.25V48H29v-.75a1.44,1.44,0,0,0-.59-1.16L16.67,37.71A4,4,0,0,1,15,34.46v-.35a3,3,0,0,1,4.24-2.73L26,34.45V15a3,3,0,0,1,3-3h1a3,3,0,0,1,3,3v9.17A3,3,0,0,1,34,24h1a3,3,0,0,1,2,.77A3,3,0,0,1,39,24h1a3,3,0,0,1,2,.77A3,3,0,0,1,44,24h1a3,3,0,0,1,3,3Z"/><path class="cls-1" d="M12.67,36.92A19,19,0,1,1,38,19a19.74,19.74,0,0,1-.26,3.17l-2-.34A16.63,16.63,0,0,0,36,19,17,17,0,1,0,13.33,35Z"/><path class="cls-1" d="M13.61,31.93A14,14,0,1,1,29.1,9.31l-1.44,1.38A12,12,0,1,0,14.38,30.08Z"/><path class="cls-1" d="M19,28a5,5,0,0,1-5-5h2a3,3,0,1,0,3-3,5,5,0,1,1,5-5H22a3,3,0,1,0-3,3,5,5,0,0,1,0,10Z"/><rect class="cls-1" x="18" y="27" width="2" height="3"/><rect class="cls-1" x="18" y="8" width="2" height="3"/><rect class="cls-1" x="10" y="18" width="2" height="2"/></g></g></svg>