<svg xmlns="http://www.w3.org/2000/svg" viewBox="0 0 48 48"><defs><style>.cls-1{fill:#201602;}</style></defs><title>Asset 12ldpi</title><g id="Layer_2" data-name="Layer 2"><g id="layer_1-2" data-name="layer 1"><path class="cls-1" d="M45,48H23a3,3,0,0,1-3-3V18h2V45a1,1,0,0,0,1,1H45a1,1,0,0,0,1-1V3a1,1,0,0,0-1-1H23a1,1,0,0,0-1,1V7H20V3a3,3,0,0,1,3-3H45a3,3,0,0,1,3,3V45A3,3,0,0,1,45,48Z"/><path class="cls-1" d="M45,42H23a3,3,0,0,1-3-3h2a1,1,0,0,0,1,1H45a1,1,0,0,0,1-1h2A3,3,0,0,1,45,42Z"/><path class="cls-1" d="M48,9H46a1,1,0,0,0-1-1H34V6H45A3,3,0,0,1,48,9Z"/><path class="cls-1" d="M7,31H1a1,1,0,0,1-1-1V10A1,1,0,0,1,1,9H7a1,1,0,0,1,1,1V30A1,1,0,0,1,7,31ZM2,29H6V11H2Z"/><path class="cls-1" d="M17,19H13V17h3.59l3.7-3.71A1,1,0,0,1,21,13h7a3,3,0,0,0,3-3V9a1,1,0,0,0-1-1H21V6h9a3,3,0,0,1,3,3v1a5,5,0,0,1-5,5H21.41l-3.7,3.71A1,1,0,0,1,17,19Z"/><path class="cls-1" d="M19,34H15a1,1,0,0,1-.71-.29L10.59,30H7a1,1,0,0,1-1-1V11a1,1,0,0,1,1-1h3.59l3.7-3.71A1,1,0,0,1,15,6h6V8H15.41l-3.7,3.71A1,1,0,0,1,11,12H8V28h3a1,1,0,0,1,.71.29L15.41,32H19Z"/><rect class="cls-1" x="33" y="3" width="2" height="2"/><rect class="cls-1" x="33" y="43" width="2" height="2"/><rect class="cls-1" x="39" y="43" width="2" height="2"/><rect class="cls-1" x="27" y="43" width="2" height="2"/><path class="cls-1" d="M34,28c-2.76,0-5-2.76-5-6.14,0-3,1.92-4.86,5-4.86s5,1.86,5,4.86C39,25.24,36.76,28,34,28Zm0-9c-2,0-3,1-3,2.86,0,2.2,1.4,4.14,3,4.14s3-1.94,3-4.14C37,20,36,19,34,19Z"/><path class="cls-1" d="M42,36H40V31.26a2,2,0,0,0-1.45-1.92L34,28l-4.55,1.3A2,2,0,0,0,28,31.26V36H26V31.26a4,4,0,0,1,2.9-3.84L33.73,26a1,1,0,0,1,.54,0l4.83,1.38A4,4,0,0,1,42,31.26Z"/><rect class="cls-1" x="33" y="30" width="2" height="2"/><rect class="cls-1" x="33" y="34" width="2" height="2"/></g></g></svg>