<svg xmlns="http://www.w3.org/2000/svg" width="48.001" height="47.262" viewBox="0 0 48.001 47.262">
  <g>
    <path d="M48,24.987a3.869,3.869,0,0,0-1.467-3.168,4.675,4.675,0,0,0,1.18-3.271,4.076,4.076,0,0,0-3.76-4.154H40.436V7.554a.729.729,0,0,0-.728-.727H32.563C31.915,2.811,29.836.116,27.2.013A6.864,6.864,0,0,0,23.51.552a.727.727,0,0,0-.333.766,37.245,37.245,0,0,1,.7,5.51H.727A.728.728,0,0,0,0,7.555v38.98a.727.727,0,0,0,.727.727h38.98a.727.727,0,0,0,.728-.727V40.689h.14a2.36,2.36,0,0,0,.3-.021,4.5,4.5,0,0,0,4.088-4.5,4.551,4.551,0,0,0-.221-1.391A4.541,4.541,0,0,0,47.5,30.627a4.49,4.49,0,0,0-.763-2.506A4.541,4.541,0,0,0,48,24.987Zm-15.27-16.7h6.25v6.111H32.27A21.464,21.464,0,0,0,32.731,8.282Zm6.25,37.526H1.456V8.283h22.33a2.189,2.189,0,0,1-.057.232c-.784,2.428-2.828,4.258-4.8,6.027s-3.85,3.465-4.206,5.611H7.3a.727.727,0,0,0-.728.727V39.96a.729.729,0,0,0,.728.729H38.98v5.119Zm-24.337-24.2V39.234H8.029V21.607ZM45.3,27.446a.73.73,0,0,0-.1,1.084,3.053,3.053,0,0,1-1.6,5.086.727.727,0,0,0-.487,1.06,3.113,3.113,0,0,1,.386,1.488,3.061,3.061,0,0,1-2.8,3.057,1.056,1.056,0,0,1-.138.012H16.1V20.879c0-1.855,1.759-3.432,3.8-5.254,2.022-1.811,4.314-3.863,5.219-6.666.552-1.709-.1-5.719-.391-7.314a8.748,8.748,0,0,1,2.416-.18c2.052.08,3.786,2.863,4.122,6.615a19.7,19.7,0,0,1-.623,6.842.728.728,0,0,0,.7.926H43.952a2.62,2.62,0,0,1,2.3,2.7c0,1.936-1.126,2.666-1.411,2.678a.727.727,0,0,0,0,1.454c.686,0,1.7.736,1.7,2.309A3.028,3.028,0,0,1,45.3,27.446Z" fill="#1a171b"/>
    <circle cx="11.337" cy="35.926" r="0.728" fill="#1a171b"/>
  </g>
</svg>
