<svg xmlns="http://www.w3.org/2000/svg" viewBox="0 0 48 48"><title>20-Online Payment</title><g id="_20-Online_Payment" data-name="20-Online Payment"><path d="M25,40H7a3,3,0,0,1-3-3V17H6V37a1,1,0,0,0,1,1H25Z"/><path d="M44,27H42V10a1,1,0,0,0-1-1H25V7H41a3,3,0,0,1,3,3Z"/><rect x="5" y="31" width="21" height="2"/><rect x="16" y="46" width="16" height="2"/><rect x="26" y="42" width="2" height="5"/><rect x="20" y="39" width="2" height="8"/><rect x="1" y="5" width="26" height="2"/><rect x="4" y="12" width="5" height="2"/><path d="M36,48A12,12,0,1,1,48,36,12.013,12.013,0,0,1,36,48Zm0-22A10,10,0,1,0,46,36,10.011,10.011,0,0,0,36,26Z"/><path d="M39,41H32V39h6V37H33a1,1,0,0,1-1-1V32a1,1,0,0,1,1-1h7v2H34v2h5a1,1,0,0,1,1,1v4A1,1,0,0,1,39,41Z"/><rect x="35" y="29" width="2" height="3"/><rect x="35" y="40" width="2" height="3"/><rect x="13" y="20" width="17" height="2"/><rect x="32" y="20" width="3" height="2"/><path d="M24,18H3a3,3,0,0,1-3-3V3A3,3,0,0,1,3,0H24a3,3,0,0,1,3,3V15A3,3,0,0,1,24,18ZM3,2A1,1,0,0,0,2,3V15a1,1,0,0,0,1,1H24a1,1,0,0,0,1-1V3a1,1,0,0,0-1-1Z"/></g></svg>